<svg width="19" height="18" viewBox="0 0 19 18" fill="none" xmlns="http://www.w3.org/2000/svg">
    <path d="M9.314 5.837c-1.653 0-3.001 1.312-3.001 2.92 0 1.608 1.348 2.92 3.001 2.92 1.653 0 3.001-1.312 3.001-2.92 0-1.608-1.348-2.92-3.001-2.92zm9.001 2.92c0-1.21.012-2.407-.058-3.615-.07-1.402-.399-2.646-1.452-3.671C15.749.443 14.472.126 13.03.058 11.788-.01 10.557 0 9.316 0 8.073 0 6.842-.01 5.601.058c-1.44.068-2.72.387-3.773 1.413C.772 2.498.445 3.74.376 5.142.306 6.352.317 7.55.317 8.757c0 1.207-.011 2.408.059 3.615.07 1.402.398 2.646 1.452 3.672C2.884 17.07 4.16 17.389 5.6 17.457c1.243.068 2.475.057 3.715.057 1.243 0 2.475.01 3.715-.057 1.441-.068 2.72-.388 3.774-1.413 1.056-1.028 1.382-2.27 1.452-3.672.072-1.207.058-2.405.058-3.615zm-9.001 4.494c-2.555 0-4.618-2.007-4.618-4.494 0-2.486 2.063-4.493 4.618-4.493s4.618 2.007 4.618 4.493c0 2.487-2.063 4.494-4.618 4.494zm4.807-8.122c-.597 0-1.079-.469-1.079-1.05 0-.58.482-1.048 1.079-1.048.596 0 1.078.468 1.078 1.049a1.024 1.024 0 0 1-.315.742 1.08 1.08 0 0 1-.763.307z" fill="#94A2B3" />
</svg>