<svg width="32" height="32" viewBox="0 0 32 32" fill="none" xmlns="http://www.w3.org/2000/svg">
    <path d="M16 0C7.163 0 0 7.163 0 16s7.163 16 16 16 16-7.163 16-16S24.836 0 16 0zm-4.269 23.735H8.218v-11.35h3.513v11.35zM9.958 10.9A2.086 2.086 0 0 1 7.88 8.805c0-1.156.93-2.094 2.077-2.094 1.147 0 2.077.938 2.077 2.094 0 1.157-.93 2.095-2.077 2.095zm14.938 12.835H21.4v-5.957c0-1.634-.62-2.546-1.913-2.546-1.406 0-2.14.95-2.14 2.546v5.957h-3.37v-11.35h3.37v1.53s1.013-1.875 3.42-1.875c2.406 0 4.129 1.47 4.129 4.509v7.186z" fill="#94A2B3"/>
    <defs>
        <linearGradient id="4pf4g0x11a" x1="4.686" y1="4.686" x2="27.314" y2="27.314" gradientUnits="userSpaceOnUse">
            <stop stop-color="#2489BE"/>
            <stop offset="1" stop-color="#0575B3"/>
        </linearGradient>
    </defs>
</svg>
