<svg width="28" height="28" viewBox="0 0 28 28" fill="none" xmlns="http://www.w3.org/2000/svg">
    <path d="M13.9 27.894C6.223 27.894 0 21.65 0 13.947 0 6.244 6.223 0 13.9 0c7.677 0 13.9 6.244 13.9 13.947 0 7.703-6.223 13.947-13.9 13.947zm0-26.377c-6.805 0-12.388 5.602-12.388 12.43 0 6.828 5.583 12.43 12.388 12.43s12.388-5.602 12.388-12.43c0-6.828-5.583-12.43-12.388-12.43z" fill="#27AE60"/>
    <path d="m13.61 21.942-1.048-1.11 6.805-6.885-6.805-6.886 1.047-1.109 7.968 7.995-7.968 7.995z" fill="#27AE60"/>
    <path d="M20.472 14.764H6.514V13.13h13.958v1.634z" fill="#27AE60"/>
</svg>
