<svg width="32" height="32" viewBox="0 0 32 32" fill="none" xmlns="http://www.w3.org/2000/svg">
    <path d="M16 32c8.837 0 16-7.163 16-16S24.837 0 16 0 0 7.163 0 16s7.163 16 16 16z" fill="#94A2B3"/>
    <path d="M26.259 9.635a8.404 8.404 0 0 1-2.418.663 4.221 4.221 0 0 0 1.851-2.328A8.41 8.41 0 0 1 23.02 8.99a4.209 4.209 0 0 0-7.172 3.84A11.951 11.951 0 0 1 7.17 8.433a4.189 4.189 0 0 0-.57 2.117c0 1.46.743 2.748 1.872 3.503a4.19 4.19 0 0 1-1.907-.527v.054c0 2.04 1.451 3.74 3.377 4.127a4.273 4.273 0 0 1-1.901.073 4.214 4.214 0 0 0 3.93 2.923 8.445 8.445 0 0 1-6.231 1.742 11.912 11.912 0 0 0 6.452 1.892c7.742 0 11.976-6.413 11.976-11.976 0-.182-.004-.363-.013-.544a8.576 8.576 0 0 0 2.103-2.182z" fill="#fff"/>
</svg>
