<svg width="32" height="22" viewBox="0 0 32 22" fill="none" xmlns="http://www.w3.org/2000/svg">
    <path fill-rule="evenodd" clip-rule="evenodd" d="M30.64 2.12C29.772.576 28.83.292 26.912.184 24.996.054 20.178 0 16.004 0 11.822 0 7.002.054 5.088.182 3.174.292 2.23.574 1.354 2.12.46 3.662 0 6.318 0 10.994v.016c0 4.656.46 7.332 1.354 8.858.876 1.544 1.818 1.824 3.732 1.954 1.916.112 6.736.178 10.918.178 4.174 0 8.992-.066 10.91-.176 1.918-.13 2.86-.41 3.728-1.954.902-1.526 1.358-4.202 1.358-8.858v-.016c0-4.678-.456-7.334-1.36-8.876z" fill="#94A2B3"/>
    <path fill-rule="evenodd" clip-rule="evenodd" d="M12 17V5l10 6-10 6z" fill="#FAFAFA"/>
</svg>
