<svg width="25" height="20" viewBox="0 0 25 20" fill="none" xmlns="http://www.w3.org/2000/svg">
<path d="M21.25 0H3.75C2.75544 0 1.80161 0.395088 1.09835 1.09835C0.395088 1.80161 0 2.75544 0 3.75V16.25C0 17.2446 0.395088 18.1984 1.09835 18.9017C1.80161 19.6049 2.75544 20 3.75 20H21.25C22.2446 20 23.1984 19.6049 23.9017 18.9017C24.6049 18.1984 25 17.2446 25 16.25V3.75C25 2.75544 24.6049 1.80161 23.9017 1.09835C23.1984 0.395088 22.2446 0 21.25 0ZM3.75 2.5H21.25C21.5815 2.5 21.8995 2.6317 22.1339 2.86612C22.3683 3.10054 22.5 3.41848 22.5 3.75L12.5 9.85L2.5 3.75C2.5 3.41848 2.6317 3.10054 2.86612 2.86612C3.10054 2.6317 3.41848 2.5 3.75 2.5ZM22.5 16.25C22.5 16.5815 22.3683 16.8995 22.1339 17.1339C21.8995 17.3683 21.5815 17.5 21.25 17.5H3.75C3.41848 17.5 3.10054 17.3683 2.86612 17.1339C2.6317 16.8995 2.5 16.5815 2.5 16.25V6.6L11.85 12.3125C12.04 12.4222 12.2556 12.48 12.475 12.48C12.6944 12.48 12.91 12.4222 13.1 12.3125L22.5 6.6V16.25Z" fill="#27AE60"/>
</svg>
