<svg width="25" height="25" viewBox="0 0 25 25" fill="none" xmlns="http://www.w3.org/2000/svg">
<path d="M21.9013 13.7898C21.6253 13.7898 21.3368 13.7017 21.0608 13.6388C20.5019 13.5153 19.9527 13.3513 19.4174 13.1481C18.8354 12.9358 18.1957 12.9468 17.6214 13.1791C17.047 13.4114 16.5786 13.8485 16.3062 14.4063L16.0303 14.9725C14.8084 14.2908 13.6856 13.4441 12.6933 12.4562C11.7082 11.461 10.864 10.3349 10.1843 9.10946L10.7112 8.75718C11.2674 8.48405 11.7032 8.01427 11.9348 7.43824C12.1664 6.86221 12.1774 6.22062 11.9657 5.63695C11.7665 5.09899 11.603 4.54839 11.4764 3.98876C11.4137 3.71197 11.3635 3.42259 11.3259 3.13321C11.1735 2.24699 10.7107 1.44444 10.0207 0.870087C9.33073 0.295735 8.45895 -0.0126745 7.56236 0.000399217H3.79885C3.2582 -0.00469197 2.7228 0.107108 2.2291 0.328188C1.7354 0.549267 1.295 0.874436 0.937864 1.28156C0.580732 1.68868 0.315259 2.1682 0.159517 2.68746C0.00377442 3.20673 -0.0385803 3.75356 0.0353358 4.29072C0.703658 9.56162 3.10389 14.459 6.85689 18.2093C10.6099 21.9595 15.5017 24.3489 20.7597 25H21.2364C22.1615 25.0014 23.0547 24.661 23.7455 24.0438C24.1423 23.6878 24.4594 23.2514 24.6756 22.7634C24.8919 22.2754 25.0024 21.7469 25 21.2129V17.4385C24.9846 16.5645 24.6673 15.723 24.1022 15.0576C23.5371 14.3922 22.7592 13.9441 21.9013 13.7898ZM22.5286 21.3388C22.5284 21.5174 22.4902 21.6939 22.4167 21.8566C22.3431 22.0193 22.2359 22.1645 22.1021 22.2824C21.9623 22.4044 21.7984 22.4955 21.6212 22.5497C21.4439 22.6039 21.2572 22.62 21.0734 22.5969C16.3751 21.9928 12.0111 19.8371 8.66973 16.4701C5.32833 13.103 3.19971 8.71608 2.61961 4.00134C2.59965 3.81704 2.61715 3.6306 2.67105 3.45328C2.72496 3.27595 2.81415 3.11143 2.93324 2.96965C3.0508 2.83545 3.19551 2.72789 3.35774 2.65413C3.51997 2.58037 3.696 2.5421 3.87412 2.54188H7.63763C7.92936 2.53537 8.21423 2.63106 8.4432 2.81247C8.67217 2.99389 8.83092 3.24968 8.89213 3.53582C8.94231 3.87972 9.00504 4.21942 9.08031 4.55493C9.22523 5.21816 9.41809 5.86993 9.65738 6.50507L7.90107 7.32288C7.75091 7.39198 7.61583 7.49015 7.50359 7.61175C7.39136 7.73335 7.30418 7.87598 7.24707 8.03147C7.18995 8.18695 7.16402 8.35222 7.17076 8.51778C7.17751 8.68334 7.21679 8.84593 7.28637 8.99623C9.09185 12.8748 12.2006 15.9926 16.0679 17.8033C16.3733 17.9292 16.7159 17.9292 17.0213 17.8033C17.1778 17.7472 17.3215 17.6605 17.4443 17.5482C17.5671 17.4359 17.6663 17.3002 17.7364 17.1491L18.5142 15.3877C19.1627 15.6203 19.8246 15.8135 20.4963 15.9664C20.8308 16.0419 21.1695 16.1048 21.5124 16.1551C21.7978 16.2165 22.0528 16.3757 22.2337 16.6054C22.4146 16.835 22.51 17.1207 22.5035 17.4133L22.5286 21.3388Z" fill="#27AE60"/>
</svg>
