<svg width="20" height="18" viewBox="0 0 20 18" fill="none" xmlns="http://www.w3.org/2000/svg">
    <path d="M17 .835H3c-.796 0-1.559.328-2.121.911A3.17 3.17 0 0 0 0 3.946v10.369c0 .824.316 1.616.879 2.199A2.947 2.947 0 0 0 3 17.425h14c.796 0 1.559-.328 2.121-.911a3.17 3.17 0 0 0 .879-2.2V3.947a3.17 3.17 0 0 0-.879-2.2A2.947 2.947 0 0 0 17 .836zM3 2.91h14c.265 0 .52.11.707.304.188.194.293.458.293.733l-8 5.06-8-5.06c0-.275.105-.539.293-.733A.982.982 0 0 1 3 2.909zm15 11.405c0 .275-.105.54-.293.734a.982.982 0 0 1-.707.303H3a.982.982 0 0 1-.707-.303A1.056 1.056 0 0 1 2 14.315V6.31l7.48 4.738a.973.973 0 0 0 1 0L18 6.31v8.005z" fill="#94A2B3"/>
</svg>
