<svg width="20" height="21" viewBox="0 0 20 21" fill="none" xmlns="http://www.w3.org/2000/svg">
    <path d="M17.521 11.512c-.22 0-.452-.07-.672-.12a9.466 9.466 0 0 1-1.315-.393 2.003 2.003 0 0 0-2.489 1.006l-.22.453a12.228 12.228 0 0 1-2.67-2.013A12.25 12.25 0 0 1 8.147 7.77l.422-.282a2.01 2.01 0 0 0 1.004-2.495c-.16-.43-.29-.87-.392-1.318a7.477 7.477 0 0 1-.12-.684 3.02 3.02 0 0 0-1.044-1.81A3.006 3.006 0 0 0 6.05.486H3.04A3.005 3.005 0 0 0 .75 1.51a3.02 3.02 0 0 0-.722 2.406 19.132 19.132 0 0 0 5.458 11.13 19.05 19.05 0 0 0 11.122 5.43h.381A3.007 3.007 0 0 0 20 17.448v-3.019a3.022 3.022 0 0 0-.718-1.903 3.01 3.01 0 0 0-1.76-1.014zm.502 6.036a1.008 1.008 0 0 1-.726.968 1.051 1.051 0 0 1-.438.038 17.045 17.045 0 0 1-9.923-4.899 17.119 17.119 0 0 1-4.84-9.97 1.1 1.1 0 0 1 .25-.825 1.004 1.004 0 0 1 .753-.342H6.11a1.002 1.002 0 0 1 1.004.795c.04.275.09.546.15.815.116.53.27 1.051.462 1.559l-1.405.654a1.004 1.004 0 0 0-.492 1.338 14.56 14.56 0 0 0 7.025 7.042 1 1 0 0 0 .763 0 1.002 1.002 0 0 0 .572-.523l.622-1.408c.52.186 1.049.34 1.586.462.268.06.539.111.813.151a1.004 1.004 0 0 1 .793 1.006l.02 3.14z" fill="#94A2B3"/>
</svg>
