<svg width="30" height="30" viewBox="0 0 30 30" fill="none" xmlns="http://www.w3.org/2000/svg">
    <path d="M26.282 16.548c-.332 0-.678-.106-1.009-.181-.67-.149-1.33-.345-1.972-.59a3.003 3.003 0 0 0-3.733 1.51l-.332.68a18.346 18.346 0 0 1-4.004-3.02 18.386 18.386 0 0 1-3.01-4.016l.631-.422a3.028 3.028 0 0 0 1.505-3.744 15.627 15.627 0 0 1-.586-1.978c-.076-.333-.136-.68-.181-1.027a4.532 4.532 0 0 0-1.566-2.716A4.508 4.508 0 0 0 9.075 0H4.559a4.505 4.505 0 0 0-3.434 1.538 4.533 4.533 0 0 0-1.083 3.61 28.718 28.718 0 0 0 8.186 16.703A28.57 28.57 0 0 0 24.912 30h.572A4.51 4.51 0 0 0 30 25.456v-4.53a4.538 4.538 0 0 0-1.077-2.857 4.513 4.513 0 0 0-2.641-1.521zm.752 9.059a1.515 1.515 0 0 1-1.089 1.453 1.577 1.577 0 0 1-.657.056 25.563 25.563 0 0 1-14.884-7.352 25.696 25.696 0 0 1-7.26-14.962 1.65 1.65 0 0 1 .376-1.238 1.506 1.506 0 0 1 1.129-.514h4.516a1.502 1.502 0 0 1 1.506 1.193c.06.413.135.82.225 1.223.174.796.406 1.578.693 2.34l-2.108.981a1.506 1.506 0 0 0-.876 1.434c.008.199.055.394.139.575a21.845 21.845 0 0 0 10.538 10.568c.366.151.777.151 1.144 0a1.504 1.504 0 0 0 .858-.785l.933-2.114c.778.28 1.573.511 2.379.695.401.09.807.166 1.219.226a1.504 1.504 0 0 1 1.19 1.51l.03 4.71z" fill="#94A2B3"/>
</svg>
