<svg width="19" height="18" viewBox="0 0 19 18" fill="none" xmlns="http://www.w3.org/2000/svg">
    <path fill-rule="evenodd" clip-rule="evenodd" d="M2.29.03c8.942 0 16.219 7.06 16.257 15.751h.001v.92h-.01a.901.901 0 0 1-.267.54.946.946 0 0 1-.553.262v.011h-1.68v-.002a.952.952 0 0 1-.613-.238.904.904 0 0 1-.3-.573h-.01v-.92h.01C15.087 8.927 9.345 3.36 2.29 3.36h-.02l-.017-.001v.012h-.945v-.01A.946.946 0 0 1 .753 3.1a.901.901 0 0 1-.27-.538h-.01V.928h.002A.9.9 0 0 1 .72.33a.947.947 0 0 1 .588-.29V.03h.945v.002L2.27.03A.283.283 0 0 1 2.29.03zm-.02 6.3-.017.002V6.33h-.945v.01a.947.947 0 0 0-.588.291.9.9 0 0 0-.245.597H.473v1.635h.01c.026.204.12.393.27.538.15.145.346.236.555.259v.01h.945v-.013l.017.001.02.001c3.485 0 6.322 2.74 6.36 6.122h-.009v.92h.01c.026.22.132.423.3.573.168.149.386.234.613.238v.002h1.68v-.01a.946.946 0 0 0 .553-.263.9.9 0 0 0 .266-.54h.011v-.92h-.002c-.037-5.218-4.41-9.451-9.782-9.451a.28.28 0 0 0-.02 0zm.762 6.41c-.314 0-.626.06-.917.178a2.4 2.4 0 0 0-.777.506 2.327 2.327 0 0 0-.52.756 2.277 2.277 0 0 0 .001 1.785c.12.283.297.54.52.756.222.217.486.388.777.506a2.453 2.453 0 0 0 2.611-.506c.223-.216.399-.473.52-.756a2.276 2.276 0 0 0 0-1.785 2.328 2.328 0 0 0-.52-.757 2.402 2.402 0 0 0-.777-.505 2.455 2.455 0 0 0-.918-.177z" fill="#94A2B3"/>
</svg>
