<svg width="22" height="18" viewBox="0 0 22 18" fill="none" xmlns="http://www.w3.org/2000/svg">
    <path d="M21.79 2.08a9.03 9.03 0 0 1-2.572.684A4.416 4.416 0 0 0 21.182.33a8.873 8.873 0 0 1-2.833 1.068A4.455 4.455 0 0 0 16.864.362 4.495 4.495 0 0 0 15.086 0C12.61 0 10.62 1.985 10.62 4.42c0 .342.042.684.11 1.013A12.735 12.735 0 0 1 1.524.808c-.4.677-.61 1.447-.607 2.231 0 1.534.788 2.886 1.99 3.682a4.54 4.54 0 0 1-2.02-.562v.054c0 2.148 1.535 3.928 3.58 4.337-.384.099-.779.15-1.175.15-.291 0-.566-.028-.844-.067.566 1.751 2.213 3.024 4.174 3.065a9.01 9.01 0 0 1-5.543 1.889c-.375 0-.72-.013-1.079-.055a12.743 12.743 0 0 0 6.858 1.982c8.212 0 12.706-6.73 12.706-12.573 0-.192 0-.384-.014-.575a9.561 9.561 0 0 0 2.24-2.286z" fill="#94A2B3"/>
</svg>
