<svg width="181" height="36" viewBox="0 0 181 36" fill="none" xmlns="http://www.w3.org/2000/svg">
<path d="M1.872 24V7.2H13.392V10.476H5.328V13.692H10.44V16.968H5.328V24H1.872ZM11.4036 24L17.9556 7.2H21.2436L27.8076 24H24.0516L22.7676 20.628H16.4196L15.1596 24H11.4036ZM17.5716 17.448H21.6036L20.0796 13.524C20.0316 13.404 19.9756 13.268 19.9116 13.116C19.8476 12.956 19.7876 12.796 19.7316 12.636C19.6756 12.476 19.6276 12.332 19.5876 12.204C19.5476 12.332 19.4996 12.476 19.4436 12.636C19.3876 12.796 19.3276 12.956 19.2636 13.116C19.1996 13.268 19.1436 13.404 19.0956 13.524L17.5716 17.448ZM35.7733 24.252C34.4533 24.252 33.3413 24 32.4373 23.496C31.5333 22.992 30.8053 22.324 30.2533 21.492C29.7013 20.652 29.3013 19.724 29.0533 18.708C28.8133 17.684 28.6933 16.648 28.6933 15.6C28.6933 14.624 28.8173 13.628 29.0653 12.612C29.3213 11.596 29.7253 10.656 30.2773 9.792C30.8293 8.928 31.5573 8.232 32.4613 7.704C33.3653 7.176 34.4693 6.912 35.7733 6.912C36.8373 6.912 37.7733 7.1 38.5813 7.476C39.3893 7.852 40.0613 8.34 40.5973 8.94C41.1413 9.532 41.5493 10.16 41.8213 10.824L38.7493 12.216C38.4693 11.8 38.1893 11.444 37.9093 11.148C37.6293 10.852 37.3173 10.624 36.9733 10.464C36.6293 10.304 36.2293 10.224 35.7733 10.224C35.1093 10.224 34.5533 10.388 34.1053 10.716C33.6573 11.044 33.2973 11.476 33.0253 12.012C32.7613 12.548 32.5693 13.132 32.4493 13.764C32.3293 14.388 32.2693 15 32.2693 15.6C32.2693 16.224 32.3373 16.852 32.4733 17.484C32.6093 18.116 32.8173 18.692 33.0973 19.212C33.3773 19.732 33.7373 20.152 34.1773 20.472C34.6253 20.784 35.1573 20.94 35.7733 20.94C36.4133 20.94 36.9693 20.74 37.4413 20.34C37.9133 19.932 38.3413 19.412 38.7253 18.78L41.8693 19.968C41.4853 20.792 41.0133 21.528 40.4533 22.176C39.8933 22.824 39.2253 23.332 38.4493 23.7C37.6813 24.068 36.7893 24.252 35.7733 24.252ZM44.3642 24V7.2H56.1722V10.476H47.8202V13.692H52.5842V16.968H47.8202V20.7H56.6642V24H44.3642ZM59.4814 24V7.2H67.1614C68.5374 7.2 69.6254 7.42 70.4254 7.86C71.2334 8.3 71.8054 8.868 72.1414 9.564C72.4854 10.252 72.6574 10.976 72.6574 11.736C72.6574 12.488 72.5094 13.176 72.2134 13.8C71.9254 14.416 71.4174 14.888 70.6894 15.216C71.2894 15.44 71.7734 15.756 72.1414 16.164C72.5174 16.572 72.7894 17.028 72.9574 17.532C73.1334 18.036 73.2214 18.528 73.2214 19.008C73.2214 19.608 73.1174 20.204 72.9094 20.796C72.7094 21.388 72.3854 21.924 71.9374 22.404C71.4974 22.884 70.9094 23.272 70.1734 23.568C69.4454 23.856 68.5494 24 67.4854 24H59.4814ZM62.9374 20.76H67.6654C68.2014 20.76 68.6174 20.664 68.9134 20.472C69.2174 20.28 69.4294 20.048 69.5494 19.776C69.6774 19.496 69.7414 19.224 69.7414 18.96C69.7414 18.624 69.6694 18.304 69.5254 18C69.3814 17.688 69.1134 17.432 68.7214 17.232C68.3294 17.032 67.7534 16.932 66.9934 16.932H62.9374V20.76ZM62.9374 13.824H66.7894C67.6054 13.824 68.2014 13.668 68.5774 13.356C68.9614 13.044 69.1534 12.628 69.1534 12.108C69.1534 11.836 69.1054 11.572 69.0094 11.316C68.9214 11.06 68.7374 10.848 68.4574 10.68C68.1774 10.504 67.7614 10.416 67.2094 10.416H62.9374V13.824ZM83.0775 24.288C81.7335 24.288 80.5895 24.036 79.6455 23.532C78.7015 23.02 77.9375 22.344 77.3535 21.504C76.7775 20.656 76.3535 19.72 76.0815 18.696C75.8175 17.672 75.6855 16.64 75.6855 15.6C75.6855 14.56 75.8175 13.528 76.0815 12.504C76.3535 11.48 76.7775 10.548 77.3535 9.708C77.9375 8.86 78.7015 8.184 79.6455 7.68C80.5895 7.168 81.7335 6.912 83.0775 6.912C84.4375 6.912 85.5855 7.168 86.5215 7.68C87.4575 8.184 88.2135 8.86 88.7895 9.708C89.3735 10.548 89.7975 11.48 90.0615 12.504C90.3255 13.528 90.4575 14.56 90.4575 15.6C90.4575 16.64 90.3255 17.672 90.0615 18.696C89.7975 19.72 89.3735 20.656 88.7895 21.504C88.2135 22.344 87.4575 23.02 86.5215 23.532C85.5855 24.036 84.4375 24.288 83.0775 24.288ZM83.0775 20.952C83.7815 20.952 84.3735 20.788 84.8535 20.46C85.3415 20.132 85.7335 19.7 86.0295 19.164C86.3255 18.62 86.5415 18.036 86.6775 17.412C86.8135 16.788 86.8815 16.184 86.8815 15.6C86.8815 14.976 86.8175 14.348 86.6895 13.716C86.5615 13.084 86.3495 12.504 86.0535 11.976C85.7655 11.448 85.3775 11.024 84.8895 10.704C84.4015 10.384 83.7975 10.224 83.0775 10.224C82.3575 10.224 81.7535 10.392 81.2655 10.728C80.7775 11.056 80.3855 11.488 80.0895 12.024C79.7935 12.56 79.5815 13.144 79.4535 13.776C79.3255 14.408 79.2615 15.016 79.2615 15.6C79.2615 16.216 79.3255 16.84 79.4535 17.472C79.5895 18.096 79.8055 18.672 80.1015 19.2C80.4055 19.728 80.8015 20.152 81.2895 20.472C81.7775 20.792 82.3735 20.952 83.0775 20.952ZM100.351 24.288C99.0069 24.288 97.8629 24.036 96.9189 23.532C95.9749 23.02 95.2109 22.344 94.6269 21.504C94.0509 20.656 93.6269 19.72 93.3549 18.696C93.0909 17.672 92.9589 16.64 92.9589 15.6C92.9589 14.56 93.0909 13.528 93.3549 12.504C93.6269 11.48 94.0509 10.548 94.6269 9.708C95.2109 8.86 95.9749 8.184 96.9189 7.68C97.8629 7.168 99.0069 6.912 100.351 6.912C101.711 6.912 102.859 7.168 103.795 7.68C104.731 8.184 105.487 8.86 106.063 9.708C106.647 10.548 107.071 11.48 107.335 12.504C107.599 13.528 107.731 14.56 107.731 15.6C107.731 16.64 107.599 17.672 107.335 18.696C107.071 19.72 106.647 20.656 106.063 21.504C105.487 22.344 104.731 23.02 103.795 23.532C102.859 24.036 101.711 24.288 100.351 24.288ZM100.351 20.952C101.055 20.952 101.647 20.788 102.127 20.46C102.615 20.132 103.007 19.7 103.303 19.164C103.599 18.62 103.815 18.036 103.951 17.412C104.087 16.788 104.155 16.184 104.155 15.6C104.155 14.976 104.091 14.348 103.963 13.716C103.835 13.084 103.623 12.504 103.327 11.976C103.039 11.448 102.651 11.024 102.163 10.704C101.675 10.384 101.071 10.224 100.351 10.224C99.6309 10.224 99.0269 10.392 98.5389 10.728C98.0509 11.056 97.6589 11.488 97.3629 12.024C97.0669 12.56 96.8549 13.144 96.7269 13.776C96.5989 14.408 96.5349 15.016 96.5349 15.6C96.5349 16.216 96.5989 16.84 96.7269 17.472C96.8629 18.096 97.0789 18.672 97.3749 19.2C97.6789 19.728 98.0749 20.152 98.5629 20.472C99.0509 20.792 99.6469 20.952 100.351 20.952ZM110.763 24V7.2H114.219V15.18L120.531 7.2H124.659L119.691 13.26L125.619 24H121.587L117.363 16.164L114.219 20.088V24H110.763Z" fill="#1778F2"/>
<path d="M181 18C181 8.05888 172.941 0 163 0C153.059 0 145 8.05888 145 18C145 27.9411 153.059 36 163 36C172.941 36 181 27.9411 181 18Z" fill="#1778F2"/>
<path d="M164.435 28.16V18.5249H167.67L168.155 14.7699H164.435V12.3724C164.435 11.2854 164.737 10.5445 166.296 10.5445H168.285V7.18696C167.322 7.08514 166.355 7.03582 165.387 7.03923C162.52 7.03923 160.558 8.78905 160.558 12.0028V14.7699H157.315V18.5249H160.558V28.16H164.435Z" fill="#FDFDFD"/>
</svg>
