<svg width="188" height="32" viewBox="0 0 188 32" fill="none" xmlns="http://www.w3.org/2000/svg">
<path d="M1.872 22V5.2H5.328V22H1.872ZM9.02044 22V5.2H12.1884L18.5364 14.404C18.6164 14.532 18.7324 14.724 18.8844 14.98C19.0364 15.236 19.1524 15.46 19.2324 15.652C19.2084 15.484 19.1884 15.268 19.1724 15.004C19.1644 14.732 19.1604 14.528 19.1604 14.392V5.2H22.5924V22H19.5564L13.0764 12.724C12.9884 12.596 12.8684 12.4 12.7164 12.136C12.5724 11.872 12.4564 11.644 12.3684 11.452C12.4004 11.66 12.4164 11.884 12.4164 12.124C12.4244 12.356 12.4284 12.556 12.4284 12.724V22H9.02044ZM32.0048 22.288C30.9328 22.288 29.9568 22.096 29.0768 21.712C28.1968 21.328 27.4408 20.78 26.8088 20.068C26.1848 19.356 25.7088 18.508 25.3808 17.524L28.4768 16.36C28.8448 17.144 29.3448 17.788 29.9768 18.292C30.6088 18.788 31.3128 19.036 32.0888 19.036C32.8888 19.036 33.5288 18.876 34.0088 18.556C34.4888 18.236 34.7288 17.772 34.7288 17.164C34.7288 16.748 34.5888 16.404 34.3088 16.132C34.0288 15.86 33.6448 15.624 33.1568 15.424C32.6688 15.216 32.1088 15.008 31.4768 14.8C30.8528 14.592 30.2208 14.364 29.5808 14.116C28.9408 13.86 28.3528 13.544 27.8168 13.168C27.2808 12.792 26.8488 12.316 26.5208 11.74C26.2008 11.156 26.0408 10.436 26.0408 9.58C26.0408 8.732 26.2648 7.956 26.7128 7.252C27.1688 6.54 27.8248 5.972 28.6808 5.548C29.5448 5.124 30.5888 4.912 31.8128 4.912C32.8208 4.912 33.7168 5.092 34.5008 5.452C35.2848 5.804 35.9328 6.284 36.4448 6.892C36.9568 7.5 37.3168 8.184 37.5248 8.944L34.4528 9.964C34.2208 9.452 33.8848 9.024 33.4448 8.68C33.0128 8.336 32.4088 8.164 31.6328 8.164C30.9448 8.164 30.4128 8.292 30.0368 8.548C29.6688 8.796 29.4848 9.16 29.4848 9.64C29.4848 9.952 29.6088 10.22 29.8568 10.444C30.1128 10.66 30.4608 10.856 30.9008 11.032C31.3488 11.208 31.8608 11.396 32.4368 11.596C33.1248 11.828 33.8088 12.084 34.4888 12.364C35.1688 12.644 35.7848 12.988 36.3368 13.396C36.8968 13.804 37.3408 14.312 37.6688 14.92C38.0048 15.528 38.1728 16.28 38.1728 17.176C38.1728 18.256 37.9008 19.176 37.3568 19.936C36.8128 20.696 36.0728 21.28 35.1368 21.688C34.2088 22.088 33.1648 22.288 32.0048 22.288ZM44.4039 22V8.512H39.6039V5.2H52.6719V8.512H47.8599V22H44.4039ZM51.5051 22L58.0571 5.2H61.3451L67.9091 22H64.1531L62.8691 18.628H56.5211L55.2611 22H51.5051ZM57.6731 15.448H61.7051L60.1811 11.524C60.1331 11.404 60.0771 11.268 60.0131 11.116C59.9491 10.956 59.8891 10.796 59.8331 10.636C59.7771 10.476 59.7291 10.332 59.6891 10.204C59.6491 10.332 59.6011 10.476 59.5451 10.636C59.4891 10.796 59.4291 10.956 59.3651 11.116C59.3011 11.268 59.2451 11.404 59.1971 11.524L57.6731 15.448ZM76.1749 22.288C74.8789 22.288 73.7629 22.048 72.8269 21.568C71.8989 21.08 71.1389 20.424 70.5469 19.6C69.9549 18.768 69.5149 17.836 69.2269 16.804C68.9389 15.764 68.7949 14.696 68.7949 13.6C68.7949 12.568 68.9389 11.544 69.2269 10.528C69.5229 9.504 69.9709 8.568 70.5709 7.72C71.1789 6.872 71.9469 6.192 72.8749 5.68C73.8029 5.168 74.9029 4.912 76.1749 4.912C77.2549 4.912 78.1749 5.092 78.9349 5.452C79.6949 5.804 80.3389 6.264 80.8669 6.832C81.3949 7.4 81.8589 8 82.2589 8.632L79.2349 10.348C78.8669 9.772 78.4389 9.272 77.9509 8.848C77.4629 8.416 76.8709 8.2 76.1749 8.2C75.4469 8.2 74.8389 8.368 74.3509 8.704C73.8629 9.04 73.4749 9.476 73.1869 10.012C72.8989 10.548 72.6909 11.132 72.5629 11.764C72.4349 12.396 72.3709 13.008 72.3709 13.6C72.3709 14.28 72.4429 14.944 72.5869 15.592C72.7309 16.232 72.9509 16.808 73.2469 17.32C73.5509 17.832 73.9429 18.24 74.4229 18.544C74.9109 18.84 75.4949 18.988 76.1749 18.988C76.6629 18.988 77.1109 18.88 77.5189 18.664C77.9349 18.44 78.2669 18.144 78.5149 17.776C78.7629 17.4 78.8869 16.992 78.8869 16.552V16.36H76.1029V13.072H82.4269V15.628C82.4269 17.06 82.1509 18.272 81.5989 19.264C81.0469 20.256 80.2989 21.008 79.3549 21.52C78.4109 22.032 77.3509 22.288 76.1749 22.288ZM85.7079 22V5.2H93.6999C95.1079 5.2 96.2239 5.448 97.0479 5.944C97.8799 6.432 98.4719 7.084 98.8239 7.9C99.1839 8.708 99.3639 9.584 99.3639 10.528C99.3639 11.16 99.2439 11.8 99.0039 12.448C98.7719 13.096 98.4199 13.688 97.9479 14.224C97.4759 14.752 96.8919 15.144 96.1959 15.4L99.4119 22H95.5479L92.4519 15.916H89.1639V22H85.7079ZM89.1639 12.664H93.7479C94.2599 12.664 94.6639 12.564 94.9599 12.364C95.2639 12.164 95.4759 11.904 95.5959 11.584C95.7239 11.256 95.7879 10.908 95.7879 10.54C95.7879 10.204 95.7279 9.876 95.6079 9.556C95.4959 9.236 95.2879 8.972 94.9839 8.764C94.6879 8.556 94.2759 8.452 93.7479 8.452H89.1639V12.664ZM100.888 22L107.44 5.2H110.728L117.292 22H113.536L112.252 18.628H105.904L104.644 22H100.888ZM107.056 15.448H111.088L109.564 11.524C109.516 11.404 109.46 11.268 109.396 11.116C109.332 10.956 109.272 10.796 109.216 10.636C109.16 10.476 109.112 10.332 109.072 10.204C109.032 10.332 108.984 10.476 108.928 10.636C108.872 10.796 108.812 10.956 108.748 11.116C108.684 11.268 108.628 11.404 108.58 11.524L107.056 15.448ZM127.447 22.288L123.235 13.348C123.203 13.276 123.167 13.188 123.127 13.084C123.087 12.98 123.047 12.872 123.007 12.76C123.015 12.856 123.019 12.964 123.019 13.084C123.027 13.196 123.031 13.292 123.031 13.372V22H119.575V5.2H123.055L127.111 14.14C127.199 14.316 127.275 14.488 127.339 14.656C127.403 14.816 127.463 14.988 127.519 15.172C127.583 14.988 127.647 14.812 127.711 14.644C127.775 14.468 127.843 14.3 127.915 14.14L132.079 5.2H135.295V22H131.851V13.348C131.851 13.252 131.851 13.148 131.851 13.036C131.851 12.916 131.855 12.82 131.863 12.748C131.823 12.844 131.779 12.944 131.731 13.048C131.691 13.152 131.651 13.244 131.611 13.324L127.447 22.288Z" fill="#E34A5B"/>
<path d="M178 0H166C163.348 0 160.804 1.05357 158.929 2.92893C157.054 4.8043 156 7.34784 156 10V22C156 24.6522 157.054 27.1957 158.929 29.0711C160.804 30.9464 163.348 32 166 32H178C180.652 32 183.196 30.9464 185.071 29.0711C186.946 27.1957 188 24.6522 188 22V10C188 7.34784 186.946 4.8043 185.071 2.92893C183.196 1.05357 180.652 0 178 0V0ZM185 22C185 25.86 181.86 29 178 29H166C162.14 29 159 25.86 159 22V10C159 6.14 162.14 3 166 3H178C181.86 3 185 6.14 185 10V22Z" fill="url(#paint0_linear_67_192)"/>
<path d="M172 8C169.878 8 167.843 8.84285 166.343 10.3431C164.843 11.8434 164 13.8783 164 16C164 18.1217 164.843 20.1566 166.343 21.6569C167.843 23.1571 169.878 24 172 24C174.122 24 176.157 23.1571 177.657 21.6569C179.157 20.1566 180 18.1217 180 16C180 13.8783 179.157 11.8434 177.657 10.3431C176.157 8.84285 174.122 8 172 8ZM172 21C170.674 20.9984 169.404 20.4711 168.466 19.5338C167.529 18.5964 167.002 17.3256 167 16C167 13.242 169.244 11 172 11C174.756 11 177 13.242 177 16C177 18.756 174.756 21 172 21Z" fill="url(#paint1_linear_67_192)"/>
<path d="M180.6 8.46598C181.189 8.46598 181.666 7.98872 181.666 7.39998C181.666 6.81125 181.189 6.33398 180.6 6.33398C180.011 6.33398 179.534 6.81125 179.534 7.39998C179.534 7.98872 180.011 8.46598 180.6 8.46598Z" fill="url(#paint2_linear_67_192)"/>
<defs>
<linearGradient id="paint0_linear_67_192" x1="158.928" y1="29.072" x2="185.072" y2="2.928" gradientUnits="userSpaceOnUse">
<stop stop-color="#FFC107"/>
<stop offset="0.507" stop-color="#F44336"/>
<stop offset="0.99" stop-color="#9C27B0"/>
</linearGradient>
<linearGradient id="paint1_linear_67_192" x1="166.344" y1="21.656" x2="177.656" y2="10.344" gradientUnits="userSpaceOnUse">
<stop stop-color="#FFC107"/>
<stop offset="0.507" stop-color="#F44336"/>
<stop offset="0.99" stop-color="#9C27B0"/>
</linearGradient>
<linearGradient id="paint2_linear_67_192" x1="179.846" y1="8.15398" x2="181.354" y2="6.64598" gradientUnits="userSpaceOnUse">
<stop stop-color="#FFC107"/>
<stop offset="0.507" stop-color="#F44336"/>
<stop offset="0.99" stop-color="#9C27B0"/>
</linearGradient>
</defs>
</svg>
