<svg width="163" height="32" viewBox="0 0 163 32" fill="none" xmlns="http://www.w3.org/2000/svg">
<path d="M1.872 22V5.2H5.328V18.664H13.404V22H1.872ZM15.5126 22V5.2H18.9686V22H15.5126ZM22.6611 22V5.2H25.8291L32.1771 14.404C32.2571 14.532 32.3731 14.724 32.5251 14.98C32.6771 15.236 32.7931 15.46 32.8731 15.652C32.8491 15.484 32.8291 15.268 32.8131 15.004C32.8051 14.732 32.8011 14.528 32.8011 14.392V5.2H36.2331V22H33.1971L26.7171 12.724C26.6291 12.596 26.5091 12.4 26.3571 12.136C26.2131 11.872 26.0971 11.644 26.0091 11.452C26.0411 11.66 26.0571 11.884 26.0571 12.124C26.0651 12.356 26.0691 12.556 26.0691 12.724V22H22.6611ZM39.9345 22V5.2H43.3905V13.18L49.7025 5.2H53.8305L48.8625 11.26L54.7905 22H50.7585L46.5345 14.164L43.3905 18.088V22H39.9345ZM57.3017 22V5.2H69.1097V8.476H60.7577V11.692H65.5217V14.968H60.7577V18.7H69.6017V22H57.3017ZM72.4189 22V5.2H78.4429C79.9069 5.2 81.1549 5.436 82.1869 5.908C83.2189 6.38 84.0589 7.02 84.7069 7.828C85.3549 8.628 85.8269 9.528 86.1229 10.528C86.4189 11.528 86.5669 12.552 86.5669 13.6C86.5669 14.552 86.4229 15.52 86.1349 16.504C85.8549 17.488 85.3949 18.396 84.7549 19.228C84.1229 20.06 83.2829 20.732 82.2349 21.244C81.1869 21.748 79.8909 22 78.3469 22H72.4189ZM75.8749 18.712H78.6829C79.4749 18.712 80.1429 18.56 80.6869 18.256C81.2389 17.952 81.6829 17.548 82.0189 17.044C82.3549 16.54 82.5989 15.988 82.7509 15.388C82.9109 14.788 82.9909 14.192 82.9909 13.6C82.9909 12.976 82.9109 12.36 82.7509 11.752C82.5909 11.144 82.3469 10.592 82.0189 10.096C81.6989 9.6 81.2829 9.204 80.7709 8.908C80.2589 8.612 79.6509 8.464 78.9469 8.464H75.8749V18.712ZM89.5986 22V5.2H93.0546V22H89.5986ZM96.747 22V5.2H99.915L106.263 14.404C106.343 14.532 106.459 14.724 106.611 14.98C106.763 15.236 106.879 15.46 106.959 15.652C106.935 15.484 106.915 15.268 106.899 15.004C106.891 14.732 106.887 14.528 106.887 14.392V5.2H110.319V22H107.283L100.803 12.724C100.715 12.596 100.595 12.4 100.443 12.136C100.299 11.872 100.183 11.644 100.095 11.452C100.127 11.66 100.143 11.884 100.143 12.124C100.151 12.356 100.155 12.556 100.155 12.724V22H96.747Z" fill="#1982BA"/>
<path d="M147 0C138.163 0 131 7.16339 131 16C131 24.8366 138.163 32 147 32C155.837 32 163 24.8366 163 16C163 7.16339 155.836 0 147 0ZM142.731 23.7353H139.218V12.3859H142.731V23.7353ZM140.958 10.8996C139.811 10.8996 138.881 9.96193 138.881 8.80545C138.881 7.64883 139.811 6.71123 140.958 6.71123C142.105 6.71123 143.035 7.64883 143.035 8.80545C143.035 9.962 142.105 10.8996 140.958 10.8996V10.8996ZM155.896 23.7353H152.4V17.7778C152.4 16.1438 151.779 15.2317 150.487 15.2317C149.081 15.2317 148.347 16.1817 148.347 17.7778V23.7353H144.977V12.3859H148.347V13.9145C148.347 13.9145 149.36 12.0397 151.767 12.0397C154.173 12.0397 155.896 13.5091 155.896 16.549L155.896 23.7353V23.7353Z" fill="url(#paint0_linear_67_148)"/>
<defs>
<linearGradient id="paint0_linear_67_148" x1="135.686" y1="4.68629" x2="158.314" y2="27.3137" gradientUnits="userSpaceOnUse">
<stop stop-color="#2489BE"/>
<stop offset="1" stop-color="#0575B3"/>
</linearGradient>
</defs>
</svg>
