<svg width="154" height="32" viewBox="0 0 154 32" fill="none" xmlns="http://www.w3.org/2000/svg">
<path d="M5.568 22V8.512H0.768V5.2H13.836V8.512H9.024V22H5.568ZM18.9924 22L15.4284 5.2H18.9924L20.7324 14.164C20.7804 14.38 20.8124 14.572 20.8284 14.74C20.8524 14.908 20.8804 15.112 20.9124 15.352C20.9364 15.136 20.9644 14.932 20.9964 14.74C21.0364 14.548 21.0804 14.352 21.1284 14.152L23.3244 5.2H26.3244L28.5324 14.14C28.5884 14.324 28.6324 14.52 28.6644 14.728C28.6964 14.928 28.7244 15.136 28.7484 15.352C28.7804 15.152 28.8124 14.96 28.8444 14.776C28.8764 14.584 28.9084 14.404 28.9404 14.236L30.7284 5.2H34.2804L30.6564 22H27.4404L24.9684 12.388C24.9284 12.244 24.8924 12.1 24.8604 11.956C24.8364 11.804 24.8124 11.616 24.7884 11.392C24.7564 11.632 24.7244 11.82 24.6924 11.956C24.6684 12.092 24.6404 12.232 24.6084 12.376L22.2084 22H18.9924ZM36.5361 22V5.2H39.9921V22H36.5361ZM47.3805 22V8.512H42.5805V5.2H55.6485V8.512H50.8365V22H47.3805ZM62.3571 22V8.512H57.5571V5.2H70.6251V8.512H65.8131V22H62.3571ZM73.2158 22V5.2H85.0238V8.476H76.6718V11.692H81.4358V14.968H76.6718V18.7H85.5158V22H73.2158ZM88.3329 22V5.2H96.3249C97.7329 5.2 98.8489 5.448 99.6729 5.944C100.505 6.432 101.097 7.084 101.449 7.9C101.809 8.708 101.989 9.584 101.989 10.528C101.989 11.16 101.869 11.8 101.629 12.448C101.397 13.096 101.045 13.688 100.573 14.224C100.101 14.752 99.5169 15.144 98.8209 15.4L102.037 22H98.1729L95.0769 15.916H91.7889V22H88.3329ZM91.7889 12.664H96.3729C96.8849 12.664 97.2889 12.564 97.5849 12.364C97.8889 12.164 98.1009 11.904 98.2209 11.584C98.3489 11.256 98.4129 10.908 98.4129 10.54C98.4129 10.204 98.3529 9.876 98.2329 9.556C98.1209 9.236 97.9129 8.972 97.6089 8.764C97.3129 8.556 96.9009 8.452 96.3729 8.452H91.7889V12.664Z" fill="#2DAAE1"/>
<path d="M138 32C146.837 32 154 24.8366 154 16C154 7.16344 146.837 0 138 0C129.163 0 122 7.16344 122 16C122 24.8366 129.163 32 138 32Z" fill="#2DAAE1"/>
<path d="M148.259 9.63535C147.504 9.97024 146.694 10.1966 145.841 10.2984C146.711 9.77753 147.378 8.95216 147.692 7.96983C146.866 8.46058 145.962 8.80606 145.019 8.99128C144.251 8.17329 143.157 7.6626 141.946 7.6626C139.622 7.6626 137.738 9.54647 137.738 11.8717C137.738 12.2011 137.775 12.5225 137.846 12.8311C134.348 12.6553 131.247 10.9796 129.171 8.43342C128.808 9.05528 128.601 9.77829 128.601 10.5497C128.601 12.0098 129.344 13.2981 130.473 14.0527C129.805 14.032 129.151 13.8516 128.566 13.5265V13.5797C128.566 15.6192 130.017 17.3198 131.943 17.7066C131.589 17.8035 131.218 17.8541 130.834 17.8541C130.562 17.8541 130.299 17.8284 130.041 17.78C130.577 19.4517 132.131 20.6685 133.973 20.7029C132.532 21.8321 130.717 22.5053 128.746 22.5053C128.406 22.5053 128.07 22.485 127.741 22.4453C129.604 23.6399 131.816 24.3373 134.193 24.3373C141.935 24.3373 146.169 17.9236 146.169 12.3615C146.169 12.1789 146.165 11.9977 146.156 11.8171C146.981 11.2204 147.693 10.4817 148.259 9.63535Z" fill="white"/>
</svg>
