<svg width="165" height="30" viewBox="0 0 165 30" fill="none" xmlns="http://www.w3.org/2000/svg">
<path d="M6.672 21V14.46L0.36 4.2H4.248L8.376 10.824L12.492 4.2H16.38L10.08 14.448V21H6.672ZM25.0228 21.288C23.6788 21.288 22.5348 21.036 21.5908 20.532C20.6468 20.02 19.8828 19.344 19.2988 18.504C18.7228 17.656 18.2988 16.72 18.0268 15.696C17.7628 14.672 17.6308 13.64 17.6308 12.6C17.6308 11.56 17.7628 10.528 18.0268 9.504C18.2988 8.48 18.7228 7.548 19.2988 6.708C19.8828 5.86 20.6468 5.184 21.5908 4.68C22.5348 4.168 23.6788 3.912 25.0228 3.912C26.3828 3.912 27.5308 4.168 28.4668 4.68C29.4028 5.184 30.1588 5.86 30.7348 6.708C31.3188 7.548 31.7428 8.48 32.0068 9.504C32.2708 10.528 32.4028 11.56 32.4028 12.6C32.4028 13.64 32.2708 14.672 32.0068 15.696C31.7428 16.72 31.3188 17.656 30.7348 18.504C30.1588 19.344 29.4028 20.02 28.4668 20.532C27.5308 21.036 26.3828 21.288 25.0228 21.288ZM25.0228 17.952C25.7268 17.952 26.3188 17.788 26.7988 17.46C27.2868 17.132 27.6788 16.7 27.9748 16.164C28.2708 15.62 28.4868 15.036 28.6228 14.412C28.7588 13.788 28.8268 13.184 28.8268 12.6C28.8268 11.976 28.7628 11.348 28.6348 10.716C28.5068 10.084 28.2948 9.504 27.9988 8.976C27.7108 8.448 27.3228 8.024 26.8348 7.704C26.3468 7.384 25.7428 7.224 25.0228 7.224C24.3028 7.224 23.6988 7.392 23.2108 7.728C22.7228 8.056 22.3308 8.488 22.0348 9.024C21.7388 9.56 21.5268 10.144 21.3988 10.776C21.2708 11.408 21.2068 12.016 21.2068 12.6C21.2068 13.216 21.2708 13.84 21.3988 14.472C21.5348 15.096 21.7508 15.672 22.0468 16.2C22.3508 16.728 22.7468 17.152 23.2348 17.472C23.7228 17.792 24.3188 17.952 25.0228 17.952ZM42.2963 21.288C40.8723 21.288 39.6443 21.024 38.6123 20.496C37.5803 19.968 36.7883 19.204 36.2363 18.204C35.6843 17.196 35.4083 15.98 35.4083 14.556V4.2H38.8643V14.556C38.8643 15.772 39.1363 16.644 39.6803 17.172C40.2323 17.692 41.1043 17.952 42.2963 17.952C43.0483 17.952 43.6763 17.844 44.1803 17.628C44.6923 17.412 45.0763 17.056 45.3323 16.56C45.5883 16.056 45.7162 15.388 45.7162 14.556V4.2H49.1723V14.556C49.1723 15.78 48.9803 16.82 48.5963 17.676C48.2203 18.532 47.7083 19.228 47.0603 19.764C46.4123 20.292 45.6763 20.68 44.8523 20.928C44.0363 21.168 43.1843 21.288 42.2963 21.288ZM56.4977 21V7.512H51.6977V4.2H64.7657V7.512H59.9537V21H56.4977ZM74.1713 21.288C72.7473 21.288 71.5193 21.024 70.4873 20.496C69.4553 19.968 68.6633 19.204 68.1113 18.204C67.5593 17.196 67.2833 15.98 67.2833 14.556V4.2H70.7393V14.556C70.7393 15.772 71.0113 16.644 71.5553 17.172C72.1073 17.692 72.9793 17.952 74.1713 17.952C74.9233 17.952 75.5513 17.844 76.0553 17.628C76.5673 17.412 76.9513 17.056 77.2073 16.56C77.4633 16.056 77.5912 15.388 77.5912 14.556V4.2H81.0473V14.556C81.0473 15.78 80.8553 16.82 80.4713 17.676C80.0953 18.532 79.5833 19.228 78.9353 19.764C78.2873 20.292 77.5513 20.68 76.7273 20.928C75.9113 21.168 75.0593 21.288 74.1713 21.288ZM84.6767 21V4.2H92.3567C93.7327 4.2 94.8207 4.42 95.6207 4.86C96.4287 5.3 97.0007 5.868 97.3367 6.564C97.6807 7.252 97.8527 7.976 97.8527 8.736C97.8527 9.488 97.7047 10.176 97.4087 10.8C97.1207 11.416 96.6127 11.888 95.8847 12.216C96.4847 12.44 96.9687 12.756 97.3367 13.164C97.7127 13.572 97.9847 14.028 98.1527 14.532C98.3287 15.036 98.4167 15.528 98.4167 16.008C98.4167 16.608 98.3127 17.204 98.1047 17.796C97.9047 18.388 97.5807 18.924 97.1327 19.404C96.6927 19.884 96.1047 20.272 95.3687 20.568C94.6407 20.856 93.7447 21 92.6807 21H84.6767ZM88.1327 17.76H92.8607C93.3967 17.76 93.8127 17.664 94.1087 17.472C94.4127 17.28 94.6247 17.048 94.7447 16.776C94.8727 16.496 94.9367 16.224 94.9367 15.96C94.9367 15.624 94.8647 15.304 94.7207 15C94.5767 14.688 94.3087 14.432 93.9167 14.232C93.5247 14.032 92.9487 13.932 92.1887 13.932H88.1327V17.76ZM88.1327 10.824H91.9847C92.8007 10.824 93.3967 10.668 93.7727 10.356C94.1567 10.044 94.3487 9.628 94.3487 9.108C94.3487 8.836 94.3007 8.572 94.2047 8.316C94.1167 8.06 93.9327 7.848 93.6527 7.68C93.3727 7.504 92.9567 7.416 92.4047 7.416H88.1327V10.824ZM101.411 21V4.2H113.219V7.476H104.867V10.692H109.631V13.968H104.867V17.7H113.711V21H101.411Z" fill="#F44336"/>
<path fill-rule="evenodd" clip-rule="evenodd" d="M163.64 6.12C162.772 4.576 161.83 4.292 159.912 4.184C157.996 4.054 153.178 4 149.004 4C144.822 4 140.002 4.054 138.088 4.182C136.174 4.292 135.23 4.574 134.354 6.12C133.46 7.662 133 10.318 133 14.994V15.01C133 19.666 133.46 22.342 134.354 23.868C135.23 25.412 136.172 25.692 138.086 25.822C140.002 25.934 144.822 26 149.004 26C153.178 26 157.996 25.934 159.914 25.824C161.832 25.694 162.774 25.414 163.642 23.87C164.544 22.344 165 19.668 165 15.012V15.002V14.996C165 10.318 164.544 7.662 163.64 6.12Z" fill="#F44336"/>
<path fill-rule="evenodd" clip-rule="evenodd" d="M145 21V9L155 15L145 21Z" fill="#FAFAFA"/>
</svg>
