<svg version="1.1" x="0px" y="0px" width="508" height="325" xmlns="http://www.w3.org/2000/svg" xmlns:xlink="http://www.w3.org/1999/xlink" xmlns:a="http://ns.adobe.com/AdobeSVGViewerExtensions/3.0/" xml:space="preserve"><g transform="translate(159.06498146057 20.921875) scale(1.6839345659235 1.6839345659235) rotate(0 45.069499969482 56.617000579834)"><path d="M26.051 3.208c3.619 1.904 7.324 4.338 9.029 8.215.928 1.984.805 4.23.531 6.349-1.336-.971-2.734-1.855-4.209-2.595.177 1.56.455 3.109.766 4.653-2.08-.853-4.283-1.908-5.398-3.983-2.194-3.845-1.454-8.489-.719-12.639zM52.469 9.991c1.936-3.1 5.11-5.115 8.273-6.783.708 4.081 1.448 8.606-.595 12.43-1.104 2.177-3.362 3.335-5.533 4.188.364-1.533.595-3.089.756-4.654-1.47.762-2.863 1.651-4.23 2.574-.366-2.644-.21-5.475 1.329-7.755zM2.86 26.136c3.973-.799 8.349-1.367 12.118.51 2.005.922 3.394 2.719 4.498 4.568-1.63.129-3.244.322-4.836.676a28.314 28.314 0 003.496 3.072c-2.252.82-4.82 1.324-7.084.268-3.886-1.715-6.202-5.539-8.192-9.094zM71.885 26.796c3.571-1.356 7.496-.831 11.137-.07-1.994 3.534-4.284 7.325-8.145 9.057-2.289 1.094-4.906.553-7.186-.268 1.287-.901 2.504-1.898 3.577-3.046-1.604-.354-3.233-.558-4.863-.702 1.286-2.151 3.034-4.151 5.48-4.971z" fill="#ffffff"></path><path d="M18.383 15.904c-2.016-1.218-4.472-.933-6.713-.794.965 1.957 1.893 4.14 3.844 5.319 1.266.837 2.848.585 4.279.638-.595-.777-1.201-1.544-1.802-2.306.724.118 2.161.359 2.88.478-.686-1.195-1.228-2.616-2.488-3.335zm52.029-.026c-1.281.703-1.85 2.135-2.553 3.33l2.928-.45c-.627.756-1.26 1.507-1.893 2.258 1.362.011 2.853.263 4.097-.456 2.097-1.126 3.083-3.405 4.064-5.442-2.219-.14-4.637-.435-6.643.76zM40.555 6.247c-.016 1.389.906 2.521 1.523 3.694.396-.794.787-1.582 1.243-2.343.317.777.628 1.555.938 2.343.713-1.131 1.641-2.269 1.631-3.679.026-2.369-1.39-4.386-2.645-6.263-1.307 1.852-2.733 3.878-2.69 6.248z" fill="#ffffff"></path><path d="M26.032 35.802c-1.438-.716-3.107-.499-4.624-.194.76 1.356 1.643 2.815 3.127 3.47.863.403 1.843.211 2.702-.102a10.79 10.79 0 01-1.334-1.173 13.29 13.29 0 011.846-.258c-.422-.706-.951-1.392-1.717-1.743zm2.855-11.923c-2.016-1.218-4.472-.934-6.713-.794.965 1.957 1.893 4.14 3.845 5.319 1.266.837 2.847.585 4.278.638-.595-.777-1.201-1.544-1.801-2.306.724.118 2.16.359 2.879.478-.687-1.195-1.228-2.617-2.488-3.335zM18.715 41.804c-1.094-.702-2.188-1.608-3.549-1.651-2.435-.097-4.515 1.362-6.408 2.691 1.92 1.266 3.974 2.762 6.392 2.644 1.378-.043 2.483-.96 3.614-1.63-.906-.338-1.802-.67-2.697-1.019a452.66 452.66 0 012.648-1.035zm64.207-1.346c-1.522-.097-2.745.906-3.925 1.7.88.278 1.765.573 2.644.879-.868.407-1.754.783-2.633 1.163 1.207.703 2.418 1.652 3.893 1.593 2.306-.043 4.252-1.421 6.092-2.648-1.819-1.266-3.765-2.65-6.071-2.687zm-19.138-.126a98.57 98.57 0 012.644.879c-.869.407-1.754.783-2.633 1.164 1.206.702 2.418 1.651 3.893 1.592 2.306-.042 4.252-1.421 6.092-2.648-1.818-1.266-3.765-2.648-6.07-2.687-1.523-.096-2.746.906-3.926 1.7zM58.842 25.42c-1.281.702-1.85 2.134-2.553 3.329.977-.149 1.952-.3 2.928-.45-.627.756-1.26 1.507-1.893 2.258 1.361.011 2.853.263 4.097-.456 2.097-1.126 3.083-3.405 4.064-5.442-2.219-.14-4.637-.435-6.643.761zm-18.287-7.102c-.016 1.389.906 2.521 1.523 3.694.396-.794.787-1.582 1.243-2.343.317.777.628 1.555.938 2.343.713-1.131 1.641-2.268 1.631-3.678.026-2.37-1.39-4.387-2.645-6.264-1.307 1.852-2.733 3.878-2.69 6.248z" fill="#ffffff"></path><path d="M26.051 3.208c-.734 4.15-1.475 8.794.719 12.639 1.115 2.075 3.318 3.131 5.398 3.983-.311-1.544-.589-3.094-.766-4.653 1.475.739 2.873 1.624 4.209 2.595.273-2.118.396-4.364-.531-6.349-1.705-3.877-5.41-6.311-9.029-8.215zM14.979 26.646c-3.77-1.877-8.146-1.309-12.118-.51 1.989 3.556 4.306 7.379 8.192 9.094 2.264 1.057 4.832.553 7.084-.268a28.397 28.397 0 01-3.496-3.072c1.592-.354 3.206-.547 4.836-.676-1.105-1.85-2.494-3.647-4.498-4.568zm56.906.15c-2.445.82-4.193 2.82-5.479 4.971 1.63.145 3.26.348 4.863.702-1.073 1.147-2.29 2.145-3.577 3.046 2.279.82 4.896 1.361 7.186.268 3.86-1.731 6.15-5.522 8.145-9.057-3.642-.761-7.567-1.287-11.138.07zM52.469 9.991c-1.539 2.279-1.694 5.11-1.329 7.754 1.367-.923 2.761-1.813 4.23-2.574-.161 1.565-.392 3.121-.756 4.654 2.171-.853 4.429-2.011 5.533-4.188 2.043-3.823 1.303-8.349.595-12.43-3.163 1.669-6.338 3.685-8.273 6.784z" fill="#ffffff"></path><path d="M9.537 105.662c-1.421-13.454-2.854-26.907-4.279-40.36A577.475 577.475 0 000 64.174c1.59 16.354 3.194 32.704 4.751 49.059 4.557-5.301 12.259-8.161 19.828-9.828-5.168-.442-10.256.854-15.042 2.257zm75.344-40.36c-1.426 13.453-2.858 26.906-4.279 40.36-4.786-1.403-9.874-2.699-15.042-2.258 7.569 1.667 15.271 4.527 19.828 9.828 1.557-16.354 3.161-32.704 4.751-49.059a613.44 613.44 0 00-5.258 1.129z" fill="#ffffff"></path><path d="M19.983 96.216c6.152-.173 12.204 2.29 16.216 5.892.75-11.96 1.204-24.412 1.939-36.372-5.556-5.096-12.664-8.981-21.456-9.159 1.055 13.213 2.222 26.422 3.301 39.639zM52 65.735c.735 11.96 1.189 24.412 1.939 36.372 4.012-3.602 10.063-6.064 16.216-5.892 1.079-13.217 2.246-26.426 3.301-39.64-8.792.179-15.9 4.065-21.456 9.16z" fill="#ffffff"></path><path d="M16.678 99.234c-1.104-13.701-2.227-27.399-3.32-41.102-1.913-.508-3.82-1.013-5.734-1.513 1.411 15.333 2.867 30.666 4.264 46 6.764-2.018 14.154-.927 21.052.035-4.455-2.986-10.546-4.109-16.262-3.42zm60.103-41.101c-1.094 13.702-2.217 27.4-3.32 41.102-5.716-.689-11.808.434-16.261 3.421 6.897-.962 14.288-2.053 21.052-.035 1.396-15.334 2.853-30.667 4.264-46-1.914.499-3.822 1.004-5.735 1.512z" fill="#ffffff"></path><path d="M43.717 29.676c.611-2.06-1.796-4.027-3.693-3.035-1.748.724-2.081 3.351-.553 4.488 1.404 1.227 3.892.396 4.246-1.453zm9.735 15.402c2.734 2.209 7.308.107 7.405-3.41.412-3.373-3.486-6.145-6.531-4.633-3.228 1.238-3.763 6.14-.874 8.043zm-24.865 2.2c1.974 1.298 4.9-.338 4.842-2.702.14-2.312-2.573-4.032-4.611-2.944-2.253.976-2.397 4.488-.231 5.646zm20.847 3.989c-1.543-10.155.843-20.359 4.162-29.92-7.266 5.754-8.676 15.507-9.803 24.118-.675-2.128-1.356-4.284-2.552-6.188-1.968-3.33-5.142-5.748-8.568-7.442 4.837 7.18 7.888 15.464 8.965 24.049-6.971-4.097-15.249-4.333-22.874-6.461 3.195 3.936 8.617 3.844 13.008 5.495 4.142 1.206 7.56 4.295 9.432 8.15.489 1.007.724 2.163.814 3.386l-.376 7.103a30.74 30.74 0 00-.112 1.705l-.378 11.402-.51 15.352-.003.092h9.176l-1.201-30.254c-.252-6.346.402-14.62 6.992-17.739 7.443-3.523 16.226-4.601 22.402-10.482-9.41 2.964-18.901 5.693-28.574 7.634z" fill="#ffffff"></path></g>
<g transform="translate(20.954365730286 245.23437288846)  scale(0.51580313282047 0.51580313282047)"><text dominant-baseline="auto" alignment-baseline="auto" font-family="Butler" font-size="62px" fill="#ffffff" letter-spacing="0" xml:space="preserve">LES ECOLES SCIENTIFIQUES</text></g>
<g transform="translate(101.04811573029 297.07812508871)  scale(0.76744186046512 0.76744186046512)"><text dominant-baseline="auto" alignment-baseline="auto" font-family="Shintia Script" font-size="34px" fill="#ffffff" letter-spacing="0" xml:space="preserve">Au service de toutes les réussites</text></g>
<g transform="translate(30.564981460571 258.734375) scale(0.85052887406264 0.85053189104724) rotate(0 265 3.3451106548309)"><path d="M0,6.69h530C530,6.69,263.079-8.363,0,6.69z" fill="#ffffff"></path></g>
</svg>